<?xml version="1.0" encoding="utf-8"?>
<!-- Generator: Adobe Illustrator 22.0.0, SVG Export Plug-In . SVG Version: 6.00 Build 0)  -->
<svg version="1.1" id="Layer_1" xmlns="http://www.w3.org/2000/svg" xmlns:xlink="http://www.w3.org/1999/xlink" x="0px" y="0px"
	 viewBox="0 0 32 32" style="enable-background:new 0 0 32 32;" xml:space="preserve">
<style type="text/css">
	.st0{fill:#22428A;}
</style>
<path class="st0" d="M27.6,8.1L18,2.5c-1.2-0.7-2.8-0.7-4,0L4.4,8.1C4.3,8.2,4.3,8.3,4.4,8.4c0,0,0.1,0.1,0.1,0.1l11.4,6.7
	c0.1,0,0.2,0,0.3,0l11.4-6.7C27.7,8.4,27.7,8.3,27.6,8.1C27.6,8.1,27.6,8.1,27.6,8.1 M16,9.5c-0.8,0-1.5-0.4-1.5-1s0.7-1,1.5-1
	s1.5,0.4,1.5,1S16.8,9.5,16,9.5 M14.9,16.9L3.4,10.2c-0.1-0.1-0.3,0-0.3,0.1c0,0,0,0.1,0,0.1v10.9c0,1.1,0.6,2.1,1.5,2.6L14.6,30
	c0.1,0.1,0.3,0,0.3-0.1c0,0,0-0.1,0-0.1V17.1C15,17.1,15,17,14.9,16.9 M6,23c-0.6,0-1-0.7-1-1.5S5.4,20,6,20s1,0.7,1,1.5
	S6.6,23,6,23 M12,21c-0.6,0-1-0.7-1-1.5s0.4-1.5,1-1.5s1,0.7,1,1.5S12.6,21,12,21 M28.6,10.2L17.1,17C17,17,17,17.1,17,17.2v12.6
	c0,0.1,0.1,0.2,0.3,0.2c0,0,0.1,0,0.1,0l10.1-6.1c0.9-0.5,1.5-1.5,1.5-2.6V10.4c0-0.1-0.1-0.3-0.2-0.3
	C28.7,10.2,28.7,10.2,28.6,10.2 M20,26.5c-0.6,0-1-0.7-1-1.5s0.4-1.5,1-1.5s1,0.7,1,1.5S20.6,26.5,20,26.5 M20,21
	c-0.6,0-1-0.7-1-1.5s0.4-1.5,1-1.5s1,0.7,1,1.5S20.6,21,20,21 M26,23c-0.6,0-1-0.7-1-1.5s0.4-1.5,1-1.5s1,0.7,1,1.5S26.6,23,26,23
	 M26,17.5c-0.6,0-1-0.7-1-1.5s0.4-1.5,1-1.5s1,0.7,1,1.5S26.6,17.5,26,17.5"/>
</svg>
