<?xml version="1.0" encoding="utf-8"?>
<!-- Generator: Adobe Illustrator 22.0.0, SVG Export Plug-In . SVG Version: 6.00 Build 0)  -->
<svg version="1.1" id="Layer_1" xmlns="http://www.w3.org/2000/svg" xmlns:xlink="http://www.w3.org/1999/xlink" x="0px" y="0px"
	 viewBox="0 0 20 20" style="enable-background:new 0 0 20 20;" xml:space="preserve">
<style type="text/css">
	.st0{fill:#FFFFFF;}
</style>
<path class="st0" d="M7,3.5C7,2.7,7.7,2,8.5,2h3.9c0.4,0,0.8,0.2,1.1,0.4l3.1,3.1C16.8,5.8,17,6.2,17,6.6v5.9c0,0.8-0.7,1.5-1.5,1.5
	h-1v-3.4c0-0.8-0.3-1.6-0.9-2.1l-3.1-3.1C9.9,4.8,9.2,4.5,8.4,4.5H7V3.5z"/>
<path class="st0" d="M4.5,6C3.7,6,3,6.7,3,7.5v9C3,17.3,3.7,18,4.5,18h7c0.8,0,1.5-0.7,1.5-1.5v-5.9c0-0.4-0.2-0.8-0.4-1.1L9.4,6.4
	C9.2,6.2,8.8,6,8.4,6H4.5z"/>
</svg>
