<?xml version="1.0" encoding="utf-8"?>
<!-- Generator: Adobe Illustrator 22.0.0, SVG Export Plug-In . SVG Version: 6.00 Build 0)  -->
<svg version="1.1" id="Layer_1" xmlns="http://www.w3.org/2000/svg" xmlns:xlink="http://www.w3.org/1999/xlink" x="0px" y="0px"
	 viewBox="0 0 20 20" style="enable-background:new 0 0 20 20;" xml:space="preserve">
<style type="text/css">
	.st0{fill:#FFFFFF;}
</style>
<path class="st0" d="M5.4,13.9l1.3-3.2c0.2-0.5,0.5-1,0.9-1.3l6.9-6.9c0.8-0.8,2.2-0.8,3,0s0.8,2.2,0,3l-6.9,6.9
	c-0.4,0.4-0.8,0.7-1.3,0.9l-3.2,1.3c-0.3,0.1-0.5,0-0.7-0.3C5.4,14.2,5.4,14,5.4,13.9L5.4,13.9z"/>
<path class="st0" d="M3.5,5.8c0-0.7,0.6-1.3,1.3-1.3H10c0.4,0,0.8-0.3,0.8-0.8S10.4,3,10,3H4.8C3.2,3,2,4.2,2,5.8v9.5
	C2,16.8,3.2,18,4.8,18h9.5c1.5,0,2.8-1.2,2.8-2.8V10c0-0.4-0.3-0.8-0.8-0.8s-0.8,0.3-0.8,0.8v5.3c0,0.7-0.6,1.3-1.3,1.3H4.8
	c-0.7,0-1.3-0.6-1.3-1.3V5.8z"/>
</svg>
