<?xml version="1.0" encoding="utf-8"?>
<!-- Generator: Adobe Illustrator 22.0.0, SVG Export Plug-In . SVG Version: 6.00 Build 0)  -->
<svg version="1.1" id="Layer_1" xmlns="http://www.w3.org/2000/svg" xmlns:xlink="http://www.w3.org/1999/xlink" x="0px" y="0px"
	 viewBox="0 0 24 24" style="enable-background:new 0 0 24 24;" xml:space="preserve">
<style type="text/css">
	.st0{fill:#FFFFFF;}
</style>
<path class="st0" d="M6.3,16.9l1.6-4c0.2-0.6,0.6-1.2,1.1-1.6l8.6-8.6c1-1,2.7-1,3.7,0s1,2.7,0,3.7L12.7,15c-0.5,0.5-1,0.9-1.6,1.1
	l-4,1.6c-0.4,0.1-0.6,0-0.9-0.4C6.3,17.2,6.3,17,6.3,16.9L6.3,16.9z"/>
<path class="st0" d="M3.9,6.8c0-0.9,0.7-1.6,1.6-1.6H12c0.5,0,1-0.4,1-1s-0.5-0.9-1-0.9H5.5C3.5,3.3,2,4.8,2,6.8v11.8
	C2,20.5,3.5,22,5.5,22h11.8c1.9,0,3.5-1.5,3.5-3.5V12c0-0.5-0.4-1-1-1c-0.6,0-1,0.4-1,1v6.6c0,0.9-0.7,1.6-1.6,1.6H5.5
	c-0.9,0-1.6-0.7-1.6-1.6C3.9,18.6,3.9,6.8,3.9,6.8z"/>
</svg>
