<?xml version="1.0" encoding="utf-8"?>
<!-- Generator: Adobe Illustrator 22.0.0, SVG Export Plug-In . SVG Version: 6.00 Build 0)  -->
<svg version="1.1" id="Layer_1" xmlns="http://www.w3.org/2000/svg" xmlns:xlink="http://www.w3.org/1999/xlink" x="0px" y="0px"
	 viewBox="0 0 24 24" style="enable-background:new 0 0 24 24;" xml:space="preserve">
<style type="text/css">
	.st0{fill:#FFFFFF;}
</style>
<g>
	<g>
		<g>
			<path class="st0" d="M2.9,18.4c0.1-0.4,0.6-0.9,0.8-1.2l6.9-6.9c0.8-0.8,2.2-0.8,2.9,0c0.8,0.8,0.8,2.2,0,2.9L6.6,20
				c-0.4,0.4-0.8,0.7-1.2,0.8l-3.2,1.2c-0.3,0.1-0.8-0.5-0.7-0.7L2.9,18.4z"/>
		</g>
	</g>
	<path class="st0" d="M22.1,12L12,2c-0.7-0.6-1.5-1-2.5-1H4.3C2.5,1,1,2.5,1,4.3v5.2c0,1,0.4,1.8,1,2.5l2,2l5.2-5.2
		C10,8.1,11,7.6,12.1,7.6c1.1,0,2.2,0.5,2.9,1.3c0.8,0.8,1.2,1.9,1.1,3c0,1-0.5,2-1.3,2.7l-5,5l2.3,2.3c1.4,1.4,3.4,1.4,4.8,0
		l5.2-5.2C23.3,15.5,23.3,13.4,22.1,12z M5,6.4C4.3,6.4,3.6,5.8,3.6,5S4.2,3.6,5,3.6S6.4,4.2,6.4,5S5.8,6.4,5,6.4z"/>
</g>
</svg>
