<?xml version="1.0" encoding="utf-8"?>
<!-- Generator: Adobe Illustrator 22.0.0, SVG Export Plug-In . SVG Version: 6.00 Build 0)  -->
<svg version="1.1" id="Layer_1" xmlns="http://www.w3.org/2000/svg" xmlns:xlink="http://www.w3.org/1999/xlink" x="0px" y="0px"
	 viewBox="0 0 20 20" style="enable-background:new 0 0 20 20;" xml:space="preserve">
<style type="text/css">
	.st0{fill:#FFFFFF;}
</style>
<path class="st0" d="M9.3,13.3c0,0.4,0.3,0.8,0.8,0.8s0.8-0.3,0.8-0.8V4.6l3,3.1c0.3,0.3,0.8,0.3,1.1,0c0.3-0.3,0.3-0.7,0-1
	l-4.3-4.5c-0.3-0.3-0.8-0.3-1.1,0c0,0,0,0,0,0L5.2,6.7C4.9,7,4.9,7.5,5.2,7.8c0.3,0.3,0.8,0.3,1.1,0c0,0,0,0,0,0l3-3.1V13.3z"/>
<path class="st0" d="M3.5,12.8c0-0.4-0.3-0.8-0.8-0.8S2,12.3,2,12.8v2.5C2,16.8,3.2,18,4.8,18h10.5c1.5,0,2.8-1.2,2.8-2.8v-2.5
	c0-0.4-0.3-0.8-0.8-0.8s-0.8,0.3-0.8,0.8v2.5c0,0.7-0.6,1.3-1.3,1.3H4.8c-0.7,0-1.3-0.6-1.3-1.3V12.8z"/>
</svg>
