<?xml version="1.0" encoding="utf-8"?>
<!-- Generator: Adobe Illustrator 22.0.0, SVG Export Plug-In . SVG Version: 6.00 Build 0)  -->
<svg version="1.1" id="Layer_1" xmlns="http://www.w3.org/2000/svg" xmlns:xlink="http://www.w3.org/1999/xlink" x="0px" y="0px"
	 viewBox="0 0 24 24" style="enable-background:new 0 0 24 24;" xml:space="preserve">
<style type="text/css">
	.st0{fill:#FFFFFF;}
</style>
<path class="st0" d="M19.9,9c0.4,0,0.7,0.1,1.1,0.2V9c0-1.7-1.3-3-3-3h-3.9c-0.2,0-0.4-0.1-0.5-0.2l-2.1-2.1C11,3.2,10.5,3,9.9,3H6
	C4.3,3,3,4.3,3,6v3.2C3.4,9.1,3.7,9,4.1,9H19.9z M4.1,10.5c-1.2,0-2.2,1-2.2,2.3c0,0.1,0,0.2,0,0.3l0.9,6C2.9,20.2,3.8,21,5,21H19
	c1.1,0,2.1-0.8,2.2-1.9l0.9-6c0.2-1.2-0.7-2.4-1.9-2.5c-0.1,0-0.2,0-0.3,0C19.9,10.5,4.1,10.5,4.1,10.5z"/>
</svg>
