<?xml version="1.0" encoding="utf-8"?>
<!-- Generator: Adobe Illustrator 22.0.0, SVG Export Plug-In . SVG Version: 6.00 Build 0)  -->
<svg version="1.1" id="Layer_1" xmlns="http://www.w3.org/2000/svg" xmlns:xlink="http://www.w3.org/1999/xlink" x="0px" y="0px"
	 viewBox="0 0 24 24" style="enable-background:new 0 0 24 24;" xml:space="preserve">
<style type="text/css">
	.st0{fill:#FFFFFF;}
</style>
<path class="st0" d="M20.5,13.7L19.6,13c-0.1-0.1-0.2-0.2-0.2-0.4c0-0.4,0-0.8,0-1.1c0-0.2,0.1-0.4,0.2-0.4l0.8-0.7
	c0.7-0.6,0.9-1.6,0.4-2.4L20,6.3c-0.5-0.8-1.4-1.1-2.3-0.8l-1,0.4c-0.1,0-0.3,0-0.4-0.1c-0.3-0.2-0.6-0.4-1-0.6
	C15.1,5.2,15,5,15,4.9l-0.2-1.1c-0.2-0.9-0.9-1.6-1.9-1.6h-1.8h0c-0.9,0-1.7,0.7-1.8,1.6L9,4.9C9,5,8.9,5.1,8.8,5.2
	c-0.3,0.2-0.7,0.4-1,0.6C7.6,5.9,7.4,5.9,7.3,5.9l-1-0.4C5.4,5.2,4.5,5.5,4,6.3L3.1,7.9c-0.5,0.8-0.3,1.8,0.4,2.4L4.4,11
	c0.1,0.1,0.2,0.2,0.2,0.4c0,0.4,0,0.8,0,1.1c0,0.2-0.1,0.4-0.2,0.4l-0.8,0.7c-0.7,0.6-0.9,1.6-0.4,2.4L4,17.7
	c0.5,0.8,1.4,1.1,2.3,0.8l1-0.4c0.1,0,0.3,0,0.4,0.1c0.3,0.2,0.6,0.4,1,0.6C8.9,18.8,9,19,9.1,19.1l0.2,1.1c0.2,0.9,0.9,1.6,1.8,1.6
	h1.8c0.9,0,1.7-0.7,1.9-1.6l0.2-1.1c0-0.1,0.1-0.3,0.3-0.3c0.3-0.2,0.7-0.4,1-0.6c0.2-0.1,0.3-0.1,0.4-0.1l1,0.4
	c0.9,0.3,1.8,0,2.3-0.8l0.9-1.6C21.4,15.3,21.2,14.3,20.5,13.7z M12,15.8c-2.1,0-3.8-1.7-3.8-3.8S9.9,8.3,12,8.3s3.8,1.7,3.8,3.8
	S14.1,15.8,12,15.8z"/>
</svg>
