<?xml version="1.0" encoding="utf-8"?>
<!-- Generator: Adobe Illustrator 22.0.0, SVG Export Plug-In . SVG Version: 6.00 Build 0)  -->
<svg version="1.1" id="Layer_1" xmlns="http://www.w3.org/2000/svg" xmlns:xlink="http://www.w3.org/1999/xlink" x="0px" y="0px"
	 viewBox="0 0 24 24" style="enable-background:new 0 0 24 24;" xml:space="preserve">
<style type="text/css">
	.st0{fill:#FFFFFF;}
</style>
<path class="st0" d="M19.9,4.1c-1.5-1.5-3.8-1.5-5.3,0c0,0,0,0,0,0l-4.5,4.5c-1.5,1.5-1.5,3.8,0,5.3c0.3,0.3,0.7,0.5,1,0.7
	c0.4,0.2,0.5,0.6,0.3,1c-0.2,0.4-0.6,0.5-1,0.3C7.9,14.7,6.8,11.6,8,9c0.3-0.5,0.6-1,1-1.4L13.5,3c2-2.1,5.3-2.1,7.4-0.1
	s2.1,5.3,0.1,7.4c0,0-0.1,0.1-0.1,0.1l-1.8,1.8c-0.3,0.3-0.8,0.3-1.1,0s-0.3-0.8,0-1.1c0,0,0,0,0,0l1.8-1.8
	C21.4,7.9,21.4,5.6,19.9,4.1C19.9,4.1,19.9,4.1,19.9,4.1z M12.5,8.4c0.2-0.4,0.6-0.5,1-0.4c2.6,1.2,3.7,4.4,2.5,7
	c-0.3,0.5-0.6,1-1,1.4L10.5,21c-2,2.1-5.3,2.1-7.4,0.1s-2.1-5.3-0.1-7.4c0,0,0.1-0.1,0.1-0.1l1.8-1.8c0.3-0.3,0.8-0.3,1.1,0
	c0.3,0.3,0.3,0.8,0,1.1c0,0,0,0,0,0l-1.8,1.8c-1.5,1.5-1.5,3.8,0,5.3c1.5,1.5,3.8,1.5,5.3,0l4.5-4.5c1.5-1.5,1.5-3.8,0-5.3
	c-0.3-0.3-0.7-0.5-1-0.7C12.5,9.2,12.3,8.7,12.5,8.4C12.5,8.4,12.5,8.4,12.5,8.4z"/>
</svg>
