<?xml version="1.0" encoding="utf-8"?>
<!-- Generator: Adobe Illustrator 22.0.0, SVG Export Plug-In . SVG Version: 6.00 Build 0)  -->
<svg version="1.1" id="Layer_1" xmlns="http://www.w3.org/2000/svg" xmlns:xlink="http://www.w3.org/1999/xlink" x="0px" y="0px"
	 viewBox="0 0 24 24" style="enable-background:new 0 0 24 24;" xml:space="preserve">
<style type="text/css">
	.st0{fill:#FFFFFF;}
</style>
<path class="st0" d="M19.5,6h-5.4c-0.2,0-0.4-0.1-0.5-0.2l-2.1-2.1C11,3.2,10.5,3,9.9,3H4.5c-1.7,0-3,1.3-3,3v12c0,1.7,1.3,3,3,3h15
	c1.7,0,3-1.3,3-3V9C22.5,7.3,21.2,6,19.5,6z M15,14.3h-2.3v2.3c0,0.4-0.3,0.8-0.8,0.8s-0.8-0.3-0.8-0.8v-2.3H9
	c-0.4,0-0.8-0.3-0.8-0.8s0.3-0.8,0.8-0.8h2.3v-2.3c0-0.4,0.3-0.8,0.8-0.8s0.8,0.3,0.8,0.8v2.3H15c0.4,0,0.8,0.3,0.8,0.8
	S15.4,14.3,15,14.3z"/>
</svg>
