<?xml version="1.0" encoding="utf-8"?>
<!-- Generator: Adobe Illustrator 22.0.0, SVG Export Plug-In . SVG Version: 6.00 Build 0)  -->
<svg version="1.1" id="Layer_1" xmlns="http://www.w3.org/2000/svg" xmlns:xlink="http://www.w3.org/1999/xlink" x="0px" y="0px"
	 viewBox="0 0 16 16" style="enable-background:new 0 0 16 16;" xml:space="preserve">
<style type="text/css">
	.st0{fill:#FFFFFF;}
	.st1{fill:#72EA2C;}
</style>
<path class="st0" d="M13.6,7.2C13.6,7.2,13.6,7.2,13.6,7.2L9.1,2.7C8.7,2.3,8,2,7.4,2H4.5C3.1,2,2,3.1,2,4.5v2.9
	C2,8,2.3,8.7,2.7,9.1l4.5,4.5c1,1,2.6,1,3.5,0c0,0,0,0,0,0l2.9-2.9C14.6,9.8,14.6,8.2,13.6,7.2z M5,6C4.4,6,4,5.6,4,5s0.4-1,1-1
	s1,0.4,1,1S5.6,6,5,6z"/>
<polygon class="st1" points="15,11 13,11 13,9 11,9 11,11 9,11 9,13 11,13 11,15 13,15 13,13 15,13 "/>
</svg>
