<?xml version="1.0" encoding="utf-8"?>
<!-- Generator: Adobe Illustrator 22.0.0, SVG Export Plug-In . SVG Version: 6.00 Build 0)  -->
<svg version="1.1" id="Layer_1" xmlns="http://www.w3.org/2000/svg" xmlns:xlink="http://www.w3.org/1999/xlink" x="0px" y="0px"
	 viewBox="0 0 24 24" style="enable-background:new 0 0 24 24;" xml:space="preserve">
<style type="text/css">
	.st0{fill:#FFFFFF;}
	.st1{fill:#72EA2C;}
</style>
<path class="st0" d="M20.3,10.5L20.3,10.5l-6.9-6.9c-0.6-0.6-1.7-1.1-2.6-1.1H6.3c-2.2,0-3.8,1.7-3.8,3.8v4.5c0,0.9,0.5,2,1.1,2.6
	l6.9,6.9c1.5,1.5,4,1.5,5.4,0l0,0l4.5-4.5C21.9,14.5,21.9,12,20.3,10.5z M7.1,8.7C6.2,8.7,5.6,8,5.6,7.1s0.6-1.5,1.5-1.5
	s1.5,0.6,1.5,1.5S8,8.7,7.1,8.7z"/>
<polygon class="st1" points="22.5,16.3 19.4,16.3 19.4,13.3 16.3,13.3 16.3,16.3 13.3,16.3 13.3,19.4 16.3,19.4 16.3,22.5 
	19.4,22.5 19.4,19.4 22.5,19.4 "/>
</svg>
