<?xml version="1.0" encoding="utf-8"?>
<!-- Generator: Adobe Illustrator 22.0.0, SVG Export Plug-In . SVG Version: 6.00 Build 0)  -->
<svg version="1.1" id="Layer_1" xmlns="http://www.w3.org/2000/svg" xmlns:xlink="http://www.w3.org/1999/xlink" x="0px" y="0px"
	 viewBox="0 0 24 24" style="enable-background:new 0 0 24 24;" xml:space="preserve">
<style type="text/css">
	.st0{fill:#FFFFFF;}
</style>
<path class="st0" d="M21.3,2.7c-1-1-2.6-1-3.5,0l-1.1,1.1l3.5,3.5l1.1-1.1C22.2,5.3,22.2,3.7,21.3,2.7z M19.2,8.4l-3.5-3.5L4,16.4
	c-0.6,0.6-1,1.3-1.3,2.1L2,21.1c-0.1,0.4,0.1,0.8,0.5,0.9c0.1,0,0.3,0,0.4,0l2.6-0.8C6.3,21,7,20.5,7.6,20L19.2,8.4L19.2,8.4z"/>
</svg>
