<?xml version="1.0" encoding="utf-8"?>
<!-- Generator: Adobe Illustrator 22.0.0, SVG Export Plug-In . SVG Version: 6.00 Build 0)  -->
<svg version="1.1" id="Layer_1" xmlns="http://www.w3.org/2000/svg" xmlns:xlink="http://www.w3.org/1999/xlink" x="0px" y="0px"
	 viewBox="0 0 32 32" style="enable-background:new 0 0 32 32;" xml:space="preserve">
<style type="text/css">
	.st0{fill:#FFFFFF;}
</style>
<image style="overflow:visible;opacity:0.23;" width="117" height="117" xlink:href="F87F0CC.jpg"  transform="matrix(0.2564 0 0 0.2564 -44.5 -3.875)">
</image>
<g>
	<path class="st0" d="M21.8,8.9c-2.5,0-4.1,1.1-4.5,3.1l2.2,1.1l2.9-1.4l2.9,1.5l2.7-1.3c-0.7-1.3-1.8-2.3-2.7-2.3
		c1.2-1.9,0.9-6.1-1.8-6.1c-1.3,0-1.8,0.1-1.8,0.6c0,0.4,0.6,0.5,1.3,0.5c1,0,1.2,1.1,1.2,1.8C24.1,7.4,23,8.4,21.8,8.9z"/>
	<path class="st0" d="M25.2,15.5L22.2,14l-2.9,1.4L17,14.2c-0.1,3.8-1.2,7.9-5.7,7.9c-6.4,0-5-3.6-6.9-3.6c-2.4,0-0.5,10.2,8.9,10.2
		c8.5,0,15.2-4.8,15.2-14.8c0,0,0-0.1,0-0.1L25.2,15.5z"/>
</g>
</svg>
