<?xml version="1.0" encoding="utf-8"?>
<!-- Generator: Adobe Illustrator 22.0.0, SVG Export Plug-In . SVG Version: 6.00 Build 0)  -->
<svg version="1.1" id="Layer_1" xmlns="http://www.w3.org/2000/svg" xmlns:xlink="http://www.w3.org/1999/xlink" x="0px" y="0px"
	 viewBox="0 0 16 16" style="enable-background:new 0 0 16 16;" xml:space="preserve">
<style type="text/css">
	.st0{fill:#FFFFFF;}
</style>
<path class="st0" d="M13.8,2.5c0.4,0,0.8,0.3,0.8,0.8v3.2c0,0.4-0.3,0.8-0.8,0.8h-3.2c-0.4,0-0.8-0.3-0.8-0.8s0.3-0.8,0.8-0.8H12
	l-0.8-0.8c-1.8-1.8-4.6-1.8-6.4,0C4.5,5.1,4.3,5.4,4.1,5.8C3.9,6.1,3.4,6.2,3.1,6C2.7,5.8,2.6,5.4,2.8,5l0,0C4.5,2.1,8.1,1.1,11,2.8
	c0.5,0.3,0.9,0.6,1.2,1l0.8,0.8V3.2C13.1,2.8,13.4,2.5,13.8,2.5z M12.9,10c0.4,0.2,0.5,0.7,0.3,1c-1.7,2.9-5.3,3.9-8.2,2.2
	c-0.5-0.3-0.9-0.6-1.2-1l-0.8-0.8v1.4c0,0.4-0.3,0.8-0.8,0.8s-0.8-0.3-0.8-0.8V9.6c0-0.4,0.3-0.8,0.8-0.8h3.2c0.4,0,0.8,0.3,0.8,0.8
	s-0.3,0.8-0.8,0.8H4l0.8,0.8c1.8,1.8,4.6,1.8,6.4,0c0.3-0.3,0.5-0.6,0.7-0.9C12.1,9.9,12.6,9.8,12.9,10C12.9,10,12.9,10,12.9,10
	L12.9,10z"/>
</svg>
