<?xml version="1.0" encoding="utf-8"?>
<!-- Generator: Adobe Illustrator 22.0.0, SVG Export Plug-In . SVG Version: 6.00 Build 0)  -->
<svg version="1.1" id="Layer_1" xmlns="http://www.w3.org/2000/svg" xmlns:xlink="http://www.w3.org/1999/xlink" x="0px" y="0px"
	 viewBox="0 0 24 24" style="enable-background:new 0 0 24 24;" xml:space="preserve">
<style type="text/css">
	.st0{fill:#FFFFFF;}
</style>
<path class="st0" d="M22.5,18.8c0.1-0.5,0.1-1,0-1.5l1.3-0.9c0.2-0.1,0.2-0.4,0.1-0.6L23,14.2c-0.1-0.2-0.3-0.3-0.5-0.2L21,14.7
	c-0.4-0.3-0.8-0.6-1.3-0.7l-0.2-1.6c0-0.2-0.2-0.4-0.4-0.4h-1.8c-0.2,0-0.4,0.2-0.4,0.4h0L16.8,14c-0.5,0.2-0.9,0.4-1.3,0.7
	l-1.5-0.7c-0.2-0.1-0.4,0-0.5,0.2l-0.9,1.6c-0.1,0.2-0.1,0.4,0.1,0.6l1.3,0.9c-0.1,0.5-0.1,1,0,1.5l-1.3,0.9
	c-0.2,0.1-0.2,0.4-0.1,0.6l0.9,1.6c0.1,0.2,0.3,0.3,0.5,0.2l1.5-0.7c0.4,0.3,0.8,0.6,1.3,0.7l0.2,1.6c0,0.2,0.2,0.4,0.4,0.4h1.8
	c0.2,0,0.4-0.2,0.4-0.4l0.2-1.6c0.5-0.2,0.9-0.4,1.3-0.7l1.5,0.7c0.2,0.1,0.4,0,0.5-0.2l0.9-1.6c0.1-0.2,0.1-0.4-0.1-0.6L22.5,18.8z
	 M19.1,19.5c-0.8,0.5-1.9,0.2-2.3-0.6l0,0c-0.5-0.8-0.2-1.9,0.6-2.3c0.8-0.5,1.9-0.2,2.3,0.6l0,0C20.2,18,20,19.1,19.1,19.5z"/>
<path class="st0" d="M10.8,18c0-4.1,3.4-7.5,7.5-7.5c1,0,1.9,0.2,2.7,0.5V4.8C21,2.7,19.3,1,17.3,1H4.8C2.7,1,1,2.7,1,4.8v12.5
	C1,19.3,2.7,21,4.8,21h6.6C11,20.1,10.8,19.1,10.8,18z M16.4,3.7c1,0,1.9,0.8,1.9,1.9c0,1-0.8,1.9-1.9,1.9c-1,0-1.9-0.8-1.9-1.9
	C14.5,4.6,15.4,3.7,16.4,3.7z M5.6,18.3c-1,0-1.9-0.8-1.9-1.9c0-1,0.8-1.9,1.9-1.9c1,0,1.9,0.8,1.9,1.9C7.5,17.4,6.6,18.3,5.6,18.3z
	 M5.6,7.5c-1,0-1.9-0.8-1.9-1.9c0-1,0.8-1.9,1.9-1.9c1,0,1.9,0.8,1.9,1.9C7.5,6.6,6.6,7.5,5.6,7.5z M9.1,11c0-1,0.8-1.9,1.9-1.9
	s1.9,0.8,1.9,1.9S12,12.9,11,12.9S9.1,12,9.1,11z"/>
</svg>
