<?xml version="1.0" encoding="utf-8"?>
<!-- Generator: Adobe Illustrator 22.0.0, SVG Export Plug-In . SVG Version: 6.00 Build 0)  -->
<svg version="1.1" id="Layer_1" xmlns="http://www.w3.org/2000/svg" xmlns:xlink="http://www.w3.org/1999/xlink" x="0px" y="0px"
	 viewBox="0 0 24 24" style="enable-background:new 0 0 24 24;" xml:space="preserve">
<style type="text/css">
	.st0{fill:#FFFFFF;}
</style>
<path class="st0" d="M8.5,8.9C7.5,8.9,6.6,8.1,6.6,7V2H5.5C3.5,2,2,3.5,2,5.5v13.1c0,1.8,1.3,3.2,3.1,3.4v-8.1C5.1,12.9,5.9,12,7,12
	h10c1.1,0,1.9,0.9,1.9,1.9V22c1.8-0.2,3.1-1.7,3.1-3.4V7.7c0-0.9-0.4-1.8-1-2.4L18.7,3c-0.6-0.6-1.3-0.9-2.1-1v5
	c0,1.1-0.9,1.9-1.9,1.9H8.5z M15.1,2H8.2v5c0,0.2,0.2,0.4,0.4,0.4h6.2c0.2,0,0.4-0.2,0.4-0.4V2z M17.4,22H6.6v-8.1
	c0-0.2,0.2-0.4,0.4-0.4h10c0.2,0,0.4,0.2,0.4,0.4V22z"/>
</svg>
