<?xml version="1.0" encoding="utf-8"?>
<!-- Generator: Adobe Illustrator 22.0.0, SVG Export Plug-In . SVG Version: 6.00 Build 0)  -->
<svg version="1.1" id="Layer_1" xmlns="http://www.w3.org/2000/svg" xmlns:xlink="http://www.w3.org/1999/xlink" x="0px" y="0px"
	 viewBox="0 0 16 16" style="enable-background:new 0 0 16 16;" xml:space="preserve">
<style type="text/css">
	.st0{fill:#FFFFFF;}
</style>
<path class="st0" d="M13.3,4H11V3.3C11,2,10,1,8.8,1H7.3C6,1,5,2,5,3.3V4H2.8C2.3,4,2,4.3,2,4.8s0.3,0.8,0.8,0.8H3l0.8,8.2
	C3.9,14.4,4.6,15,5.4,15h5.3c0.8,0,1.4-0.6,1.5-1.3L13,5.5h0.3c0.4,0,0.8-0.3,0.8-0.8S13.7,4,13.3,4z M6.5,3.3
	c0-0.4,0.3-0.8,0.8-0.8h1.5c0.4,0,0.8,0.3,0.8,0.8V4h-3V3.3z M6.4,13c-0.4,0-0.8-0.3-0.8-0.7L5.3,6.8C5.3,6.4,5.6,6,6,6c0,0,0,0,0,0
	c0.4,0,0.8,0.3,0.8,0.7c0,0,0,0,0,0l0.3,5.5C7.1,12.6,6.8,13,6.4,13z M10.7,6.8l-0.3,5.5c0,0.4-0.4,0.7-0.8,0.7
	c-0.4,0-0.7-0.4-0.7-0.8l0.3-5.5C9.2,6.3,9.5,6,10,6v0C10.4,6,10.7,6.4,10.7,6.8C10.7,6.8,10.7,6.8,10.7,6.8z"/>
</svg>
