<?xml version="1.0" encoding="utf-8"?>
<!-- Generator: Adobe Illustrator 22.0.0, SVG Export Plug-In . SVG Version: 6.00 Build 0)  -->
<svg version="1.1" id="Layer_1" xmlns="http://www.w3.org/2000/svg" xmlns:xlink="http://www.w3.org/1999/xlink" x="0px" y="0px"
	 viewBox="0 0 24 24" style="enable-background:new 0 0 24 24;" xml:space="preserve">
<style type="text/css">
	.st0{fill:#FFFFFF;}
</style>
<path class="st0" d="M20.3,5.7h-3.6V4.6c0-2-1.6-3.6-3.5-3.6h-2.4c-2,0-3.6,1.6-3.6,3.6v1.1H3.8C3,5.7,2.5,6.2,2.5,7S3,8.2,3.8,8.2
	h0.3l1.3,12.9C5.5,22.1,6.6,23,7.9,23h8.3c1.3,0,2.2-0.9,2.4-2l1.3-12.9h0.5c0.6,0,1.3-0.5,1.3-1.3S20.9,5.7,20.3,5.7z M9.6,4.6
	c0-0.6,0.5-1.3,1.3-1.3h2.4c0.6,0,1.3,0.5,1.3,1.3v1.1H9.8V4.6H9.6z M9.5,19.9c-0.6,0-1.3-0.5-1.3-1.1l-0.5-8.6
	c0-0.6,0.5-1.3,1.1-1.3l0,0c0.6,0,1.3,0.5,1.3,1.1l0,0l0.5,8.6C10.6,19.2,10.1,19.9,9.5,19.9z M16.2,10.1l-0.5,8.6
	c0,0.6-0.6,1.1-1.3,1.1c-0.6,0-1.1-0.6-1.1-1.3l0.5-8.6c0-0.6,0.5-1.1,1.3-1.1l0,0C15.7,8.9,16.2,9.5,16.2,10.1L16.2,10.1z"/>
</svg>
